<mxfile host="Electron" modified="2024-07-18T04:02:28.331Z" agent="Mozilla/5.0 (Macintosh; Intel Mac OS X 10_15_7) AppleWebKit/537.36 (KHTML, like Gecko) draw.io/22.1.11 Chrome/114.0.5735.289 Electron/25.9.8 Safari/537.36" etag="EcnsTF1SBvAqP4F1J47Y" version="22.1.11" type="device">
  <diagram name="第 1 页" id="nqfvksqHeKKnOr7MkH7a">
    <mxGraphModel dx="3812" dy="1788" grid="1" gridSize="10" guides="1" tooltips="1" connect="1" arrows="1" fold="1" page="1" pageScale="1" pageWidth="1200" pageHeight="1920" math="0" shadow="0">
      <root>
        <mxCell id="0" />
        <mxCell id="1" parent="0" />
        <mxCell id="b3h1PkLUjxJ-fJ9nde4h-35" style="edgeStyle=orthogonalEdgeStyle;rounded=0;orthogonalLoop=1;jettySize=auto;html=1;" parent="1" source="b3h1PkLUjxJ-fJ9nde4h-1" target="b3h1PkLUjxJ-fJ9nde4h-32" edge="1">
          <mxGeometry relative="1" as="geometry" />
        </mxCell>
        <mxCell id="b3h1PkLUjxJ-fJ9nde4h-1" value="" style="strokeWidth=1;shadow=0;dashed=0;align=center;html=1;shape=mxgraph.mockup.containers.browserWindow;rSize=0;strokeColor=#666666;strokeColor2=#008cff;strokeColor3=#c4c4c4;mainText=,;recursiveResize=0;" parent="1" vertex="1">
          <mxGeometry x="470" y="270" width="550" height="380" as="geometry" />
        </mxCell>
        <mxCell id="b3h1PkLUjxJ-fJ9nde4h-2" value="Agent Store - Fynal" style="strokeWidth=1;shadow=0;dashed=0;align=center;html=1;shape=mxgraph.mockup.containers.anchor;fontSize=17;fontColor=#666666;align=left;whiteSpace=wrap;" parent="b3h1PkLUjxJ-fJ9nde4h-1" vertex="1">
          <mxGeometry x="60" y="12" width="170" height="26" as="geometry" />
        </mxCell>
        <mxCell id="b3h1PkLUjxJ-fJ9nde4h-3" value="https://agentstore.fynal.ai" style="strokeWidth=1;shadow=0;dashed=0;align=center;html=1;shape=mxgraph.mockup.containers.anchor;rSize=0;fontSize=17;fontColor=#666666;align=left;" parent="b3h1PkLUjxJ-fJ9nde4h-1" vertex="1">
          <mxGeometry x="130" y="60" width="250" height="26" as="geometry" />
        </mxCell>
        <mxCell id="b3h1PkLUjxJ-fJ9nde4h-8" style="edgeStyle=orthogonalEdgeStyle;rounded=0;orthogonalLoop=1;jettySize=auto;html=1;" parent="1" source="b3h1PkLUjxJ-fJ9nde4h-7" target="b3h1PkLUjxJ-fJ9nde4h-1" edge="1">
          <mxGeometry relative="1" as="geometry" />
        </mxCell>
        <mxCell id="b3h1PkLUjxJ-fJ9nde4h-9" value="访问平台、管理Agent、管理财务" style="edgeLabel;html=1;align=center;verticalAlign=middle;resizable=0;points=[];" parent="b3h1PkLUjxJ-fJ9nde4h-8" vertex="1" connectable="0">
          <mxGeometry x="-0.2384" y="4" relative="1" as="geometry">
            <mxPoint y="4" as="offset" />
          </mxGeometry>
        </mxCell>
        <mxCell id="b3h1PkLUjxJ-fJ9nde4h-7" value="开发者" style="shape=umlActor;verticalLabelPosition=bottom;verticalAlign=top;html=1;outlineConnect=0;" parent="1" vertex="1">
          <mxGeometry x="-230" y="430" width="30" height="60" as="geometry" />
        </mxCell>
        <mxCell id="b3h1PkLUjxJ-fJ9nde4h-14" value="" style="strokeWidth=1;shadow=0;dashed=0;align=center;html=1;shape=mxgraph.mockup.containers.browserWindow;rSize=0;strokeColor=#666666;strokeColor2=#008cff;strokeColor3=#c4c4c4;mainText=,;recursiveResize=0;" parent="1" vertex="1">
          <mxGeometry x="470" y="760" width="550" height="380" as="geometry" />
        </mxCell>
        <mxCell id="b3h1PkLUjxJ-fJ9nde4h-15" value="Agent Store - Fynal" style="strokeWidth=1;shadow=0;dashed=0;align=center;html=1;shape=mxgraph.mockup.containers.anchor;fontSize=17;fontColor=#666666;align=left;whiteSpace=wrap;" parent="b3h1PkLUjxJ-fJ9nde4h-14" vertex="1">
          <mxGeometry x="60" y="12" width="170" height="26" as="geometry" />
        </mxCell>
        <mxCell id="b3h1PkLUjxJ-fJ9nde4h-16" value="https://agentstore.fynal.ai" style="strokeWidth=1;shadow=0;dashed=0;align=center;html=1;shape=mxgraph.mockup.containers.anchor;rSize=0;fontSize=17;fontColor=#666666;align=left;" parent="b3h1PkLUjxJ-fJ9nde4h-14" vertex="1">
          <mxGeometry x="130" y="60" width="250" height="26" as="geometry" />
        </mxCell>
        <mxCell id="b3h1PkLUjxJ-fJ9nde4h-17" style="edgeStyle=orthogonalEdgeStyle;rounded=0;orthogonalLoop=1;jettySize=auto;html=1;" parent="1" source="b3h1PkLUjxJ-fJ9nde4h-19" target="b3h1PkLUjxJ-fJ9nde4h-14" edge="1">
          <mxGeometry relative="1" as="geometry" />
        </mxCell>
        <mxCell id="b3h1PkLUjxJ-fJ9nde4h-18" value="访问平台、管理用户、管理Agent、管理财务" style="edgeLabel;html=1;align=center;verticalAlign=middle;resizable=0;points=[];" parent="b3h1PkLUjxJ-fJ9nde4h-17" vertex="1" connectable="0">
          <mxGeometry x="-0.2384" y="4" relative="1" as="geometry">
            <mxPoint y="4" as="offset" />
          </mxGeometry>
        </mxCell>
        <mxCell id="b3h1PkLUjxJ-fJ9nde4h-19" value="运营管理员" style="shape=umlActor;verticalLabelPosition=bottom;verticalAlign=top;html=1;outlineConnect=0;" parent="1" vertex="1">
          <mxGeometry x="-220" y="920" width="30" height="60" as="geometry" />
        </mxCell>
        <mxCell id="b3h1PkLUjxJ-fJ9nde4h-42" style="edgeStyle=orthogonalEdgeStyle;rounded=0;orthogonalLoop=1;jettySize=auto;html=1;" parent="1" source="b3h1PkLUjxJ-fJ9nde4h-22" target="b3h1PkLUjxJ-fJ9nde4h-41" edge="1">
          <mxGeometry relative="1" as="geometry" />
        </mxCell>
        <mxCell id="b3h1PkLUjxJ-fJ9nde4h-22" value="开发者" style="shape=umlActor;verticalLabelPosition=bottom;verticalAlign=top;html=1;outlineConnect=0;" parent="1" vertex="1">
          <mxGeometry x="-200" y="1390" width="30" height="60" as="geometry" />
        </mxCell>
        <mxCell id="b3h1PkLUjxJ-fJ9nde4h-28" style="edgeStyle=orthogonalEdgeStyle;rounded=0;orthogonalLoop=1;jettySize=auto;html=1;exitX=1;exitY=0.5;exitDx=0;exitDy=0;entryX=0;entryY=0.5;entryDx=0;entryDy=0;" parent="1" source="b3h1PkLUjxJ-fJ9nde4h-25" target="b3h1PkLUjxJ-fJ9nde4h-27" edge="1">
          <mxGeometry relative="1" as="geometry" />
        </mxCell>
        <mxCell id="b3h1PkLUjxJ-fJ9nde4h-25" value="~/.agent-store/config.json" style="rounded=0;whiteSpace=wrap;html=1;" parent="1" vertex="1">
          <mxGeometry x="4020" y="1269" width="190" height="60" as="geometry" />
        </mxCell>
        <mxCell id="b3h1PkLUjxJ-fJ9nde4h-27" value="&lt;div&gt;{&lt;/div&gt;&lt;div&gt;&amp;nbsp; &amp;nbsp; &amp;nbsp; &amp;nbsp; &quot;auths&quot;: {},&lt;/div&gt;&lt;div&gt;&amp;nbsp; &amp;nbsp; &amp;nbsp; &amp;nbsp; &quot;credsStore&quot;: &quot;desktop&quot;,&lt;/div&gt;&lt;div&gt;&amp;nbsp; &amp;nbsp; &amp;nbsp; &amp;nbsp; &quot;currentContext&quot;: &quot;desktop-linux&quot;&lt;/div&gt;&lt;div&gt;}&lt;/div&gt;" style="text;html=1;strokeColor=none;fillColor=none;align=left;verticalAlign=middle;whiteSpace=wrap;rounded=0;" parent="1" vertex="1">
          <mxGeometry x="4330" y="1247" width="270" height="104" as="geometry" />
        </mxCell>
        <mxCell id="b3h1PkLUjxJ-fJ9nde4h-30" value="./.agents/@author/weather" style="rounded=0;whiteSpace=wrap;html=1;" parent="1" vertex="1">
          <mxGeometry x="4020" y="1454" width="170" height="60" as="geometry" />
        </mxCell>
        <mxCell id="b3h1PkLUjxJ-fJ9nde4h-32" value="" style="strokeWidth=1;shadow=0;dashed=0;align=center;html=1;shape=mxgraph.mockup.containers.browserWindow;rSize=0;strokeColor=#666666;strokeColor2=#008cff;strokeColor3=#c4c4c4;mainText=,;recursiveResize=0;" parent="1" vertex="1">
          <mxGeometry x="1280" y="270" width="880" height="380" as="geometry" />
        </mxCell>
        <mxCell id="b3h1PkLUjxJ-fJ9nde4h-33" value="@author/weather&amp;nbsp;- Fynal" style="strokeWidth=1;shadow=0;dashed=0;align=center;html=1;shape=mxgraph.mockup.containers.anchor;fontSize=17;fontColor=#666666;align=left;whiteSpace=wrap;" parent="b3h1PkLUjxJ-fJ9nde4h-32" vertex="1">
          <mxGeometry x="60" y="12" width="250" height="26" as="geometry" />
        </mxCell>
        <mxCell id="b3h1PkLUjxJ-fJ9nde4h-34" value="https://agentstore.fynal.ai/agent/@author/weather/v/0.0.1" style="strokeWidth=1;shadow=0;dashed=0;align=center;html=1;shape=mxgraph.mockup.containers.anchor;rSize=0;fontSize=17;fontColor=#666666;align=left;" parent="b3h1PkLUjxJ-fJ9nde4h-32" vertex="1">
          <mxGeometry x="130" y="60" width="730" height="26" as="geometry" />
        </mxCell>
        <mxCell id="yVHS5LMwqakxGogHCgru-26" style="edgeStyle=orthogonalEdgeStyle;rounded=0;orthogonalLoop=1;jettySize=auto;html=1;exitX=1;exitY=0.5;exitDx=0;exitDy=0;entryX=0;entryY=0.5;entryDx=0;entryDy=0;" parent="1" source="b3h1PkLUjxJ-fJ9nde4h-39" target="yVHS5LMwqakxGogHCgru-13" edge="1">
          <mxGeometry relative="1" as="geometry" />
        </mxCell>
        <mxCell id="b3h1PkLUjxJ-fJ9nde4h-39" value="{&lt;br&gt;&lt;span style=&quot;white-space: pre;&quot;&gt;&amp;nbsp;   &lt;/span&gt;&quot;name:&quot;&amp;nbsp;@author/weather&quot;,&lt;br&gt;&amp;nbsp; &amp;nbsp; &quot;version&quot;: &quot;0.0.1&quot;,&lt;br&gt;&amp;nbsp; &amp;nbsp; &quot;dependencies&quot;: {&lt;br&gt;&amp;nbsp; &amp;nbsp; &amp;nbsp; &amp;nbsp; &quot;@author/webparser&quot;: &quot;^0.0.1&quot;&lt;br&gt;&amp;nbsp; &amp;nbsp; }&lt;br&gt;}" style="rounded=0;whiteSpace=wrap;html=1;align=left;verticalAlign=top;" parent="1" vertex="1">
          <mxGeometry x="1490" y="1600" width="280" height="180" as="geometry" />
        </mxCell>
        <mxCell id="b3h1PkLUjxJ-fJ9nde4h-48" style="edgeStyle=orthogonalEdgeStyle;rounded=0;orthogonalLoop=1;jettySize=auto;html=1;exitX=1;exitY=0.5;exitDx=0;exitDy=0;entryX=0;entryY=0.5;entryDx=0;entryDy=0;" parent="1" source="b3h1PkLUjxJ-fJ9nde4h-41" target="b3h1PkLUjxJ-fJ9nde4h-47" edge="1">
          <mxGeometry relative="1" as="geometry" />
        </mxCell>
        <mxCell id="b3h1PkLUjxJ-fJ9nde4h-53" value="apm add @author/weather@0.0.1" style="edgeLabel;html=1;align=center;verticalAlign=middle;resizable=0;points=[];" parent="b3h1PkLUjxJ-fJ9nde4h-48" vertex="1" connectable="0">
          <mxGeometry x="0.4767" relative="1" as="geometry">
            <mxPoint x="22" as="offset" />
          </mxGeometry>
        </mxCell>
        <mxCell id="b3h1PkLUjxJ-fJ9nde4h-49" style="edgeStyle=orthogonalEdgeStyle;rounded=0;orthogonalLoop=1;jettySize=auto;html=1;exitX=1;exitY=0.5;exitDx=0;exitDy=0;entryX=0;entryY=0.5;entryDx=0;entryDy=0;" parent="1" source="b3h1PkLUjxJ-fJ9nde4h-41" target="b3h1PkLUjxJ-fJ9nde4h-46" edge="1">
          <mxGeometry relative="1" as="geometry" />
        </mxCell>
        <mxCell id="b3h1PkLUjxJ-fJ9nde4h-52" value="apm login" style="edgeLabel;html=1;align=center;verticalAlign=middle;resizable=0;points=[];" parent="b3h1PkLUjxJ-fJ9nde4h-49" vertex="1" connectable="0">
          <mxGeometry x="0.5138" y="-2" relative="1" as="geometry">
            <mxPoint x="40" y="-2" as="offset" />
          </mxGeometry>
        </mxCell>
        <mxCell id="b3h1PkLUjxJ-fJ9nde4h-51" style="edgeStyle=orthogonalEdgeStyle;rounded=0;orthogonalLoop=1;jettySize=auto;html=1;exitX=1;exitY=0.5;exitDx=0;exitDy=0;entryX=0;entryY=0.5;entryDx=0;entryDy=0;" parent="1" source="b3h1PkLUjxJ-fJ9nde4h-41" target="b3h1PkLUjxJ-fJ9nde4h-50" edge="1">
          <mxGeometry relative="1" as="geometry" />
        </mxCell>
        <mxCell id="b3h1PkLUjxJ-fJ9nde4h-55" value="apm publish" style="edgeLabel;html=1;align=center;verticalAlign=middle;resizable=0;points=[];" parent="b3h1PkLUjxJ-fJ9nde4h-51" vertex="1" connectable="0">
          <mxGeometry x="0.6163" relative="1" as="geometry">
            <mxPoint as="offset" />
          </mxGeometry>
        </mxCell>
        <mxCell id="b3h1PkLUjxJ-fJ9nde4h-41" value="通过Agent Pakcage Manager登录后，拿到Authorization token，再下载或上传Agent" style="rounded=0;whiteSpace=wrap;html=1;" parent="1" vertex="1">
          <mxGeometry x="-10" y="1390" width="230" height="60" as="geometry" />
        </mxCell>
        <mxCell id="b3h1PkLUjxJ-fJ9nde4h-56" style="edgeStyle=orthogonalEdgeStyle;rounded=0;orthogonalLoop=1;jettySize=auto;html=1;exitX=1;exitY=0.5;exitDx=0;exitDy=0;" parent="1" source="b3h1PkLUjxJ-fJ9nde4h-46" target="b3h1PkLUjxJ-fJ9nde4h-25" edge="1">
          <mxGeometry relative="1" as="geometry" />
        </mxCell>
        <mxCell id="b3h1PkLUjxJ-fJ9nde4h-46" value="POST https://agentstoreemp.fynal.ai/agentstore/login&lt;br&gt;&lt;br&gt;{&lt;br&gt;&lt;span style=&quot;white-space: pre;&quot;&gt;&#x9;&lt;/span&gt;&quot;username&quot;: &quot;author&quot;,&lt;br&gt;&lt;span style=&quot;white-space: pre;&quot;&gt;&#x9;&lt;/span&gt;&quot;password&quot;: &quot;password&quot;&lt;br&gt;}" style="rounded=0;whiteSpace=wrap;html=1;align=left;verticalAlign=top;" parent="1" vertex="1">
          <mxGeometry x="720" y="1230" width="560" height="140" as="geometry" />
        </mxCell>
        <mxCell id="b3h1PkLUjxJ-fJ9nde4h-57" style="edgeStyle=orthogonalEdgeStyle;rounded=0;orthogonalLoop=1;jettySize=auto;html=1;exitX=1;exitY=0.5;exitDx=0;exitDy=0;" parent="1" source="b3h1PkLUjxJ-fJ9nde4h-47" target="b3h1PkLUjxJ-fJ9nde4h-30" edge="1">
          <mxGeometry relative="1" as="geometry" />
        </mxCell>
        <mxCell id="b3h1PkLUjxJ-fJ9nde4h-47" value="GET https://agentstoreemp.fynal.ai/agentstore/agent/download/@author/weather/v/0.0.1&lt;br style=&quot;border-color: var(--border-color);&quot;&gt;&lt;br style=&quot;border-color: var(--border-color);&quot;&gt;&lt;span style=&quot;&quot;&gt;Authorization: Bearer token&lt;/span&gt;" style="rounded=0;whiteSpace=wrap;html=1;align=left;verticalAlign=top;" parent="1" vertex="1">
          <mxGeometry x="720" y="1430" width="560" height="110" as="geometry" />
        </mxCell>
        <mxCell id="b3h1PkLUjxJ-fJ9nde4h-58" style="edgeStyle=orthogonalEdgeStyle;rounded=0;orthogonalLoop=1;jettySize=auto;html=1;exitX=1;exitY=0.5;exitDx=0;exitDy=0;" parent="1" source="b3h1PkLUjxJ-fJ9nde4h-50" target="b3h1PkLUjxJ-fJ9nde4h-39" edge="1">
          <mxGeometry relative="1" as="geometry" />
        </mxCell>
        <mxCell id="b3h1PkLUjxJ-fJ9nde4h-50" value="POST https://agentstoreemp.fynal.ai/agentstore/agent/upload&lt;br style=&quot;border-color: var(--border-color);&quot;&gt;&lt;br style=&quot;border-color: var(--border-color);&quot;&gt;&lt;span style=&quot;&quot;&gt;Authorization: Bearer token&lt;/span&gt;&lt;br style=&quot;border-color: var(--border-color);&quot;&gt;&lt;br style=&quot;border-color: var(--border-color);&quot;&gt;&lt;span style=&quot;&quot;&gt;weather.tar.gz&lt;/span&gt;" style="rounded=0;whiteSpace=wrap;html=1;align=left;verticalAlign=top;" parent="1" vertex="1">
          <mxGeometry x="720" y="1640" width="560" height="100" as="geometry" />
        </mxCell>
        <mxCell id="yVHS5LMwqakxGogHCgru-3" value="" style="group" parent="1" vertex="1" connectable="0">
          <mxGeometry x="2940" y="230" width="270" height="450" as="geometry" />
        </mxCell>
        <mxCell id="yVHS5LMwqakxGogHCgru-4" value="" style="shape=cube;whiteSpace=wrap;html=1;boundedLbl=1;backgroundOutline=1;darkOpacity=0.05;darkOpacity2=0.1;size=10;direction=south;" parent="yVHS5LMwqakxGogHCgru-3" vertex="1">
          <mxGeometry width="270" height="450" as="geometry" />
        </mxCell>
        <mxCell id="yVHS5LMwqakxGogHCgru-5" value="Web Server: agentstore" style="text;html=1;strokeColor=none;fillColor=none;align=center;verticalAlign=middle;whiteSpace=wrap;rounded=0;fontStyle=4" parent="yVHS5LMwqakxGogHCgru-3" vertex="1">
          <mxGeometry x="30" y="20" width="200" height="30" as="geometry" />
        </mxCell>
        <mxCell id="yVHS5LMwqakxGogHCgru-6" value="OS=Ubuntu 22" style="rounded=0;whiteSpace=wrap;html=1;" parent="yVHS5LMwqakxGogHCgru-3" vertex="1">
          <mxGeometry x="25" y="100" width="120" height="30" as="geometry" />
        </mxCell>
        <mxCell id="yVHS5LMwqakxGogHCgru-7" value="agentstore_backend port=11008" style="rounded=0;whiteSpace=wrap;html=1;" parent="yVHS5LMwqakxGogHCgru-3" vertex="1">
          <mxGeometry x="25" y="320" width="205" height="30" as="geometry" />
        </mxCell>
        <mxCell id="yVHS5LMwqakxGogHCgru-8" value="agentstore_frontend port=12173" style="rounded=0;whiteSpace=wrap;html=1;" parent="yVHS5LMwqakxGogHCgru-3" vertex="1">
          <mxGeometry x="25" y="240" width="175" height="30" as="geometry" />
        </mxCell>
        <mxCell id="yVHS5LMwqakxGogHCgru-9" value="web server=pm2" style="rounded=0;whiteSpace=wrap;html=1;" parent="yVHS5LMwqakxGogHCgru-3" vertex="1">
          <mxGeometry x="25" y="140" width="120" height="30" as="geometry" />
        </mxCell>
        <mxCell id="yVHS5LMwqakxGogHCgru-10" style="edgeStyle=orthogonalEdgeStyle;rounded=0;orthogonalLoop=1;jettySize=auto;html=1;entryX=0;entryY=0;entryDx=230.00000000000003;entryDy=270;entryPerimeter=0;" parent="1" source="b3h1PkLUjxJ-fJ9nde4h-32" target="yVHS5LMwqakxGogHCgru-4" edge="1">
          <mxGeometry relative="1" as="geometry" />
        </mxCell>
        <mxCell id="yVHS5LMwqakxGogHCgru-11" style="edgeStyle=orthogonalEdgeStyle;rounded=0;orthogonalLoop=1;jettySize=auto;html=1;entryX=0;entryY=0;entryDx=230.00000000000003;entryDy=270;entryPerimeter=0;" parent="1" source="b3h1PkLUjxJ-fJ9nde4h-14" target="yVHS5LMwqakxGogHCgru-4" edge="1">
          <mxGeometry relative="1" as="geometry">
            <Array as="points">
              <mxPoint x="2460" y="950" />
              <mxPoint x="2460" y="460" />
            </Array>
          </mxGeometry>
        </mxCell>
        <mxCell id="yVHS5LMwqakxGogHCgru-15" style="edgeStyle=orthogonalEdgeStyle;rounded=0;orthogonalLoop=1;jettySize=auto;html=1;exitX=0.5;exitY=0;exitDx=0;exitDy=0;entryX=0.5;entryY=1;entryDx=0;entryDy=0;shape=link;" parent="1" source="yVHS5LMwqakxGogHCgru-13" target="yVHS5LMwqakxGogHCgru-7" edge="1">
          <mxGeometry relative="1" as="geometry" />
        </mxCell>
        <mxCell id="yVHS5LMwqakxGogHCgru-13" value="agentstore_backend" style="rounded=0;whiteSpace=wrap;html=1;" parent="1" vertex="1">
          <mxGeometry x="2210" y="1180" width="850" height="715" as="geometry" />
        </mxCell>
        <mxCell id="yVHS5LMwqakxGogHCgru-16" value="" style="group" parent="1" vertex="1" connectable="0">
          <mxGeometry x="3580" y="240" width="270" height="160" as="geometry" />
        </mxCell>
        <mxCell id="yVHS5LMwqakxGogHCgru-17" value="" style="shape=cube;whiteSpace=wrap;html=1;boundedLbl=1;backgroundOutline=1;darkOpacity=0.05;darkOpacity2=0.1;size=10;direction=south;" parent="yVHS5LMwqakxGogHCgru-16" vertex="1">
          <mxGeometry width="270" height="160" as="geometry" />
        </mxCell>
        <mxCell id="yVHS5LMwqakxGogHCgru-18" value="Mongodb Server" style="text;html=1;strokeColor=none;fillColor=none;align=center;verticalAlign=middle;whiteSpace=wrap;rounded=0;fontStyle=4" parent="yVHS5LMwqakxGogHCgru-16" vertex="1">
          <mxGeometry x="25" y="20" width="200" height="30" as="geometry" />
        </mxCell>
        <mxCell id="yVHS5LMwqakxGogHCgru-24" value="dev_db_name=agentstore_emp_dev" style="rounded=0;whiteSpace=wrap;html=1;" parent="yVHS5LMwqakxGogHCgru-16" vertex="1">
          <mxGeometry x="25" y="60" width="205" height="30" as="geometry" />
        </mxCell>
        <mxCell id="yVHS5LMwqakxGogHCgru-25" value="db_name=emp" style="rounded=0;whiteSpace=wrap;html=1;" parent="yVHS5LMwqakxGogHCgru-16" vertex="1">
          <mxGeometry x="25" y="100" width="205" height="30" as="geometry" />
        </mxCell>
        <mxCell id="yVHS5LMwqakxGogHCgru-19" value="" style="group" parent="1" vertex="1" connectable="0">
          <mxGeometry x="3580" y="500" width="270" height="120" as="geometry" />
        </mxCell>
        <mxCell id="yVHS5LMwqakxGogHCgru-20" value="" style="shape=cube;whiteSpace=wrap;html=1;boundedLbl=1;backgroundOutline=1;darkOpacity=0.05;darkOpacity2=0.1;size=10;direction=south;" parent="yVHS5LMwqakxGogHCgru-19" vertex="1">
          <mxGeometry width="270" height="120" as="geometry" />
        </mxCell>
        <mxCell id="yVHS5LMwqakxGogHCgru-21" value="Redis Server" style="text;html=1;strokeColor=none;fillColor=none;align=center;verticalAlign=middle;whiteSpace=wrap;rounded=0;fontStyle=4" parent="yVHS5LMwqakxGogHCgru-19" vertex="1">
          <mxGeometry x="25" y="20" width="200" height="30" as="geometry" />
        </mxCell>
        <mxCell id="yVHS5LMwqakxGogHCgru-22" style="edgeStyle=orthogonalEdgeStyle;rounded=0;orthogonalLoop=1;jettySize=auto;html=1;exitX=0;exitY=0;exitDx=220;exitDy=0;exitPerimeter=0;entryX=0;entryY=0;entryDx=65;entryDy=270;entryPerimeter=0;" parent="1" source="yVHS5LMwqakxGogHCgru-4" target="yVHS5LMwqakxGogHCgru-17" edge="1">
          <mxGeometry relative="1" as="geometry" />
        </mxCell>
        <mxCell id="yVHS5LMwqakxGogHCgru-23" style="edgeStyle=orthogonalEdgeStyle;rounded=0;orthogonalLoop=1;jettySize=auto;html=1;exitX=0;exitY=0;exitDx=220;exitDy=0;exitPerimeter=0;" parent="1" source="yVHS5LMwqakxGogHCgru-4" target="yVHS5LMwqakxGogHCgru-20" edge="1">
          <mxGeometry relative="1" as="geometry" />
        </mxCell>
        <mxCell id="yVHS5LMwqakxGogHCgru-27" value="" style="group" parent="1" vertex="1" connectable="0">
          <mxGeometry x="3580" y="700" width="270" height="120" as="geometry" />
        </mxCell>
        <mxCell id="yVHS5LMwqakxGogHCgru-28" value="repositories" style="shape=cube;whiteSpace=wrap;html=1;boundedLbl=1;backgroundOutline=1;darkOpacity=0.05;darkOpacity2=0.1;size=10;direction=south;" parent="yVHS5LMwqakxGogHCgru-27" vertex="1">
          <mxGeometry width="270" height="120" as="geometry" />
        </mxCell>
        <mxCell id="yVHS5LMwqakxGogHCgru-29" value="File Server" style="text;html=1;strokeColor=none;fillColor=none;align=center;verticalAlign=middle;whiteSpace=wrap;rounded=0;fontStyle=4" parent="yVHS5LMwqakxGogHCgru-27" vertex="1">
          <mxGeometry x="25" y="20" width="200" height="30" as="geometry" />
        </mxCell>
        <mxCell id="yVHS5LMwqakxGogHCgru-31" style="edgeStyle=orthogonalEdgeStyle;rounded=0;orthogonalLoop=1;jettySize=auto;html=1;exitX=0;exitY=0;exitDx=220;exitDy=0;exitPerimeter=0;entryX=0;entryY=0;entryDx=65;entryDy=270;entryPerimeter=0;" parent="1" source="yVHS5LMwqakxGogHCgru-4" target="yVHS5LMwqakxGogHCgru-28" edge="1">
          <mxGeometry relative="1" as="geometry" />
        </mxCell>
      </root>
    </mxGraphModel>
  </diagram>
</mxfile>
